<svg>
  <symbol id="dots" xmlns="http://www.w3.org/2000/svg" viewBox="0 0 24 24"><path fill="none" stroke="currentColor" stroke-linecap="round" stroke-linejoin="round" stroke-width="1.5" d="M12 6.75a.75.75 0 1 1 0-1.5a.75.75 0 0 1 0 1.5m0 6a.75.75 0 1 1 0-1.5a.75.75 0 0 1 0 1.5m0 6a.75.75 0 1 1 0-1.5a.75.75 0 0 1 0 1.5"/></symbol>
  <symbol id="edit" xmlns="http://www.w3.org/2000/svg" viewBox="0 0 24 24"><path fill="none" stroke="currentColor" stroke-linecap="round" stroke-linejoin="round" stroke-width="1.5" d="m16.862 4.487l1.687-1.688a1.875 1.875 0 1 1 2.652 2.652L10.582 16.07a4.5 4.5 0 0 1-1.897 1.13L6 18l.8-2.685a4.5 4.5 0 0 1 1.13-1.897zm0 0L19.5 7.125M18 14v4.75A2.25 2.25 0 0 1 15.75 21H5.25A2.25 2.25 0 0 1 3 18.75V8.25A2.25 2.25 0 0 1 5.25 6H10"/></symbol>
  <symbol id="delete" xmlns="http://www.w3.org/2000/svg" viewBox="0 0 24 24"><path fill="none" stroke="currentColor" stroke-linecap="round" stroke-linejoin="round" stroke-width="1.5" d="m14.74 9l-.346 9m-4.788 0L9.26 9m9.968-3.21c.342.052.682.107 1.022.166m-1.022-.165L18.16 19.673a2.25 2.25 0 0 1-2.244 2.077H8.084a2.25 2.25 0 0 1-2.244-2.077L4.772 5.79m14.456 0a48.108 48.108 0 0 0-3.478-.397m-12 .562c.34-.059.68-.114 1.022-.165m0 0a48.11 48.11 0 0 1 3.478-.397m7.5 0v-.916c0-1.18-.91-2.164-2.09-2.201a51.964 51.964 0 0 0-3.32 0c-1.18.037-2.09 1.022-2.09 2.201v.916m7.5 0a48.667 48.667 0 0 0-7.5 0"/></symbol>
  <symbol id="delete-done" xmlns="http://www.w3.org/2000/svg" viewBox="0 0 24 24"><path fill="currentColor" d="M4.14 2.69a.996.996 0 0 0 0 1.41l9.67 9.67l-1.41 1.41l-3.54-3.53a.996.996 0 1 0-1.41 1.41l4.24 4.24c.39.39 1.02.39 1.41 0l2.12-2.12l5.89 5.89a.996.996 0 1 0 1.41-1.41L5.55 2.69a.996.996 0 0 0-1.41 0zm13.91 9.67l4.24-4.24a.999.999 0 0 0-.01-1.42c-.39-.38-1.02-.38-1.41.01l-4.24 4.24l1.42 1.41zM16.64 6.7a.996.996 0 0 0-1.41 0l-1.42 1.42l1.41 1.41l1.42-1.42a.996.996 0 0 0 0-1.41zM1.79 13.06l4.95 4.95l1.41-1.41l-4.95-4.95a.996.996 0 1 0-1.41 1.41z"/></symbol>
  <symbol id="close" xmlns="http://www.w3.org/2000/svg" viewBox="0 0 24 24"><path fill="none" stroke="currentColor" stroke-linecap="round" stroke-linejoin="round" stroke-width="2" d="M6 18L18 6M6 6l12 12"/></symbol>
  <symbol id="settings" xmlns="http://www.w3.org/2000/svg" viewBox="0 0 24 24"><g fill="none" stroke="currentColor" stroke-linecap="round" stroke-linejoin="round" stroke-width="1.5"><path d="M10.34 3.94c.1-.54.56-.94 1.11-.94h1.1c.55 0 1.02.4 1.1.94l.15.9c.07.42.39.76.78.92.4.17.86.15 1.21-.1l.74-.53a1.13 1.13 0 0 1 1.45.12l.77.77c.39.4.44 1 .12 1.45l-.53.74c-.25.35-.27.8-.1 1.2.16.4.5.71.93.78l.89.15c.54.1.94.56.94 1.11v1.1c0 .55-.4 1.02-.94 1.1l-.9.16c-.42.07-.76.38-.92.78-.17.4-.15.85.1 1.2l.53.74c.32.44.27 1.06-.12 1.45l-.77.77a1.13 1.13 0 0 1-1.45.12l-.74-.53c-.35-.25-.8-.27-1.2-.1-.4.16-.71.5-.79.93l-.14.89c-.1.54-.56.94-1.11.94h-1.1c-.55 0-1.02-.4-1.1-.94l-.16-.9a1.26 1.26 0 0 0-.78-.92c-.4-.17-.85-.15-1.2.1l-.74.53c-.45.32-1.06.27-1.45-.12l-.77-.77a1.13 1.13 0 0 1-.12-1.45l.53-.74c.25-.35.27-.8.1-1.2-.16-.4-.5-.71-.93-.78l-.9-.15A1.13 1.13 0 0 1 3 12.55v-1.1c0-.55.4-1.02.94-1.1l.9-.16c.42-.07.76-.38.92-.78.17-.4.15-.85-.1-1.2l-.53-.74a1.13 1.13 0 0 1 .12-1.45l.77-.77a1.13 1.13 0 0 1 1.45-.12l.74.53c.35.25.8.27 1.2.1.4-.16.71-.5.78-.93z"/><path d="M15 12a3 3 0 1 1-6 0 3 3 0 0 1 6 0"/></g></symbol>
  <symbol id="drag" xmlns="http://www.w3.org/2000/svg" viewBox="0 0 24 24"><path stroke="currentColor" stroke-width="1.5" d="M14 18a1 1 0 1 0 2 0 1 1 0 0 0-2 0m-6 0a1 1 0 1 0 2 0 1 1 0 0 0-2 0m6-6a1 1 0 1 0 2 0 1 1 0 0 0-2 0m-6 0a1 1 0 1 0 2 0 1 1 0 0 0-2 0m6-6a1 1 0 1 0 2 0 1 1 0 0 0-2 0M8 6a1 1 0 1 0 2 0 1 1 0 0 0-2 0"/></symbol>
</svg>